<?xml version="1.0" encoding="UTF-8"?>
<svg width="512" height="512" viewBox="0 0 512 512" fill="none" xmlns="http://www.w3.org/2000/svg">
  <rect width="512" height="512" rx="128" fill="#36406A"/>
  <path d="M256 96C176.5 96 112 160.5 112 240C112 319.5 176.5 384 256 384C335.5 384 400 319.5 400 240C400 160.5 335.5 96 256 96ZM256 352C194.1 352 144 301.9 144 240C144 178.1 194.1 128 256 128C317.9 128 368 178.1 368 240C368 301.9 317.9 352 256 352Z" fill="white"/>
  <path d="M280 192H264V176C264 170.5 259.5 166 254 166H242C236.5 166 232 170.5 232 176V192H216C210.5 192 206 196.5 206 202V214C206 219.5 210.5 224 216 224H232V288H216C210.5 288 206 292.5 206 298V310C206 315.5 210.5 320 216 320H232V336C232 341.5 236.5 346 242 346H254C259.5 346 264 341.5 264 336V320H280C285.5 320 290 315.5 290 310V298C290 292.5 285.5 288 280 288H264V224H280C285.5 224 290 219.5 290 214V202C290 196.5 285.5 192 280 192Z" fill="white"/>
</svg> 