<?xml version="1.0" encoding="UTF-8"?>
<svg width="512" height="512" viewBox="0 0 512 512" fill="none" xmlns="http://www.w3.org/2000/svg">
  <rect width="512" height="512" rx="256" fill="#2563EB"/>
  <path d="M296 400H264V368C230.64 364.16 200.48 349.44 192 320H240C247.2 334.72 264.8 344 288 344C316.48 344 336 330.72 336 308C336 288.64 321.28 280 288 276L272 274C224.64 267.84 192 250.72 192 208C192 171.84 217.12 145.28 264 140.8V108H296V140.8C324.48 144.64 349.6 158.08 358.4 184H310.4C304 173.44 291.2 168 276.8 168C252.8 168 240 180 240 196C240 212.64 252.8 220 284.8 224L300.8 226C352 232.96 384 252.32 384 292C384 333.44 352 363.84 296 368V400Z" fill="white"/>
</svg> 